<mxfile host="" modified="2020-05-29T15:26:05.887Z" agent="5.0 (Macintosh; Intel Mac OS X 10_15_4) AppleWebKit/537.36 (KHTML, like Gecko) Code/1.45.1 Chrome/78.0.3904.130 Electron/7.2.4 Safari/537.36" etag="_7yO2NrT0O-VKjB6ZIHS" version="13.1.3">
    <diagram id="6hGFLwfOUW9BJ-s0fimq" name="infra configuration">
        <mxGraphModel dx="611" dy="657" grid="1" gridSize="10" guides="1" tooltips="1" connect="1" arrows="1" fold="1" page="1" pageScale="1" pageWidth="1169" pageHeight="827" math="0" shadow="0">
            <root>
                <mxCell id="0"/>
                <mxCell id="1" parent="0"/>
                <mxCell id="96" value="" style="group" parent="1" vertex="1" connectable="0">
                    <mxGeometry x="139" y="150" width="1000" height="564" as="geometry"/>
                </mxCell>
                <mxCell id="40" value="" style="endArrow=classic;html=1;fontFamily=Comic Sans MS;fontSize=16;" parent="96" target="90" edge="1">
                    <mxGeometry width="50" height="50" relative="1" as="geometry">
                        <mxPoint x="110" y="118.82999999999998" as="sourcePoint"/>
                        <mxPoint x="350" y="118" as="targetPoint"/>
                    </mxGeometry>
                </mxCell>
                <mxCell id="46" value="/*" style="text;html=1;strokeColor=none;fillColor=none;align=center;verticalAlign=middle;whiteSpace=wrap;rounded=0;fontFamily=Comic Sans MS;fontSize=16;" parent="96" vertex="1">
                    <mxGeometry x="430" y="63" width="70" height="20" as="geometry"/>
                </mxCell>
                <mxCell id="47" value="/api/*" style="text;html=1;strokeColor=none;fillColor=none;align=center;verticalAlign=middle;whiteSpace=wrap;rounded=0;fontFamily=Comic Sans MS;fontSize=16;" parent="96" vertex="1">
                    <mxGeometry x="430" y="167" width="70" height="20" as="geometry"/>
                </mxCell>
                <mxCell id="61" value="build" style="text;html=1;strokeColor=none;fillColor=none;align=center;verticalAlign=middle;whiteSpace=wrap;rounded=0;fontFamily=Comic Sans MS;fontSize=16;" parent="96" vertex="1">
                    <mxGeometry x="605" y="371" width="120" height="20" as="geometry"/>
                </mxCell>
                <mxCell id="64" value="" style="curved=1;endArrow=classic;html=1;" parent="96" edge="1">
                    <mxGeometry width="50" height="50" relative="1" as="geometry">
                        <mxPoint x="545" y="436" as="sourcePoint"/>
                        <mxPoint x="585" y="436" as="targetPoint"/>
                        <Array as="points">
                            <mxPoint x="535" y="476"/>
                            <mxPoint x="565" y="496"/>
                            <mxPoint x="595" y="476"/>
                        </Array>
                    </mxGeometry>
                </mxCell>
                <mxCell id="65" value="test" style="text;html=1;strokeColor=none;fillColor=none;align=center;verticalAlign=middle;whiteSpace=wrap;rounded=0;fontFamily=Comic Sans MS;fontSize=16;" parent="96" vertex="1">
                    <mxGeometry x="531" y="491" width="70" height="20" as="geometry"/>
                </mxCell>
                <mxCell id="69" value="" style="endArrow=classic;html=1;fontFamily=Comic Sans MS;fontSize=16;entryX=0.164;entryY=0.067;entryDx=0;entryDy=0;entryPerimeter=0;" parent="96" edge="1">
                    <mxGeometry width="50" height="50" relative="1" as="geometry">
                        <mxPoint x="605" y="348" as="sourcePoint"/>
                        <mxPoint x="719.6799999999998" y="229.33999999999992" as="targetPoint"/>
                    </mxGeometry>
                </mxCell>
                <mxCell id="70" value="update" style="text;html=1;strokeColor=none;fillColor=none;align=center;verticalAlign=middle;whiteSpace=wrap;rounded=0;fontFamily=Comic Sans MS;fontSize=16;" parent="96" vertex="1">
                    <mxGeometry x="569" y="268" width="120" height="20" as="geometry"/>
                </mxCell>
                <mxCell id="74" value="" style="endArrow=classic;html=1;fontFamily=Comic Sans MS;fontSize=16;" parent="96" target="93" edge="1">
                    <mxGeometry width="50" height="50" relative="1" as="geometry">
                        <mxPoint x="630" y="425" as="sourcePoint"/>
                        <mxPoint x="720" y="486" as="targetPoint"/>
                    </mxGeometry>
                </mxCell>
                <mxCell id="75" value="update" style="text;html=1;strokeColor=none;fillColor=none;align=center;verticalAlign=middle;whiteSpace=wrap;rounded=0;fontFamily=Comic Sans MS;fontSize=16;" parent="96" vertex="1">
                    <mxGeometry x="590" y="456" width="120" height="20" as="geometry"/>
                </mxCell>
                <mxCell id="80" value="Amazon ECR" style="outlineConnect=0;fontColor=#232F3E;gradientColor=none;strokeColor=#ffffff;fillColor=#232F3E;dashed=0;verticalLabelPosition=middle;verticalAlign=bottom;align=center;html=1;whiteSpace=wrap;fontSize=10;fontStyle=1;spacing=3;shape=mxgraph.aws4.productIcon;prIcon=mxgraph.aws4.ecr;" parent="96" vertex="1">
                    <mxGeometry x="725" y="319.5" width="80" height="100" as="geometry"/>
                </mxCell>
                <mxCell id="81" value="AWS Fargate" style="outlineConnect=0;fontColor=#232F3E;gradientColor=none;strokeColor=#ffffff;fillColor=#232F3E;dashed=0;verticalLabelPosition=middle;verticalAlign=bottom;align=center;html=1;whiteSpace=wrap;fontSize=10;fontStyle=1;spacing=3;shape=mxgraph.aws4.productIcon;prIcon=mxgraph.aws4.fargate;" parent="96" vertex="1">
                    <mxGeometry x="725" y="142" width="80" height="100" as="geometry"/>
                </mxCell>
                <mxCell id="49" value="" style="endArrow=classic;html=1;fontFamily=Comic Sans MS;fontSize=16;" parent="96" source="80" target="81" edge="1">
                    <mxGeometry width="50" height="50" relative="1" as="geometry">
                        <mxPoint x="760" y="330" as="sourcePoint"/>
                        <mxPoint x="770" y="260" as="targetPoint"/>
                    </mxGeometry>
                </mxCell>
                <mxCell id="66" value="run" style="text;html=1;strokeColor=none;fillColor=none;align=center;verticalAlign=middle;whiteSpace=wrap;rounded=0;fontFamily=Comic Sans MS;fontSize=16;" parent="96" vertex="1">
                    <mxGeometry x="390" y="371" width="120" height="20" as="geometry"/>
                </mxCell>
                <mxCell id="83" value="" style="group" parent="96" vertex="1" connectable="0">
                    <mxGeometry x="250" y="332" width="120" height="95" as="geometry"/>
                </mxCell>
                <mxCell id="52" value="" style="dashed=0;outlineConnect=0;html=1;align=center;labelPosition=center;verticalLabelPosition=bottom;verticalAlign=top;shape=mxgraph.weblogos.github;fontFamily=Comic Sans MS;fontSize=16;" parent="83" vertex="1">
                    <mxGeometry x="22.5" width="75" height="75" as="geometry"/>
                </mxCell>
                <mxCell id="55" value="GitHub" style="text;html=1;strokeColor=none;fillColor=none;align=center;verticalAlign=middle;whiteSpace=wrap;rounded=0;fontFamily=Comic Sans MS;fontSize=16;" parent="83" vertex="1">
                    <mxGeometry y="75" width="120" height="20" as="geometry"/>
                </mxCell>
                <mxCell id="84" value="" style="group" parent="96" vertex="1" connectable="0">
                    <mxGeometry x="500" y="332" width="120" height="96.5" as="geometry"/>
                </mxCell>
                <mxCell id="57" value="" style="shape=image;verticalLabelPosition=bottom;verticalAlign=top;imageAspect=0;aspect=fixed;image=data:image/svg+xml,PHN2ZyB4bWxucz0iaHR0cDovL3d3dy53My5vcmcvMjAwMC9zdmciIHdpZHRoPSI0OCIgaGVpZ2h0PSI0OCIgdmlld0JveD0iMCAwIDQ4IDQ4IiBmaWxsPSJub25lIj4mI3hhOzxwYXRoIGZpbGwtcnVsZT0iZXZlbm9kZCIgY2xpcC1ydWxlPSJldmVub2RkIiBkPSJNMTAgMUMxNC45NzA3IDEgMTkgNS4wMjkzMiAxOSAxMEMxOSAxNC45NzA3IDE0Ljk3MDcgMTkgMTAgMTlDNS4wMjkzMiAxOSAxIDE0Ljk3MDcgMSAxMEMxIDUuMDI5MzIgNS4wMjkzMiAxIDEwIDFaIiBzdHJva2U9IiMyMDg4RkYiIHN0cm9rZS13aWR0aD0iMiIgc3Ryb2tlLWxpbmVjYXA9InJvdW5kIiBzdHJva2UtbGluZWpvaW49InJvdW5kIi8+JiN4YTs8cGF0aCBmaWxsLXJ1bGU9ImV2ZW5vZGQiIGNsaXAtcnVsZT0iZXZlbm9kZCIgZD0iTTIzIDE5QzI2LjMxMzcgMTkgMjkgMjEuNjg2MyAyOSAyNUMyOSAyOC4zMTM3IDI2LjMxMzcgMzEgMjMgMzFDMTkuNjg2MyAzMSAxNyAyOC4zMTM3IDE3IDI1QzE3IDIxLjY4NjMgMTkuNjg2MyAxOSAyMyAxOVoiIHN0cm9rZT0iIzIwODhGRiIgc3Ryb2tlLXdpZHRoPSIyIiBzdHJva2UtbGluZWNhcD0icm91bmQiIHN0cm9rZS1saW5lam9pbj0icm91bmQiLz4mI3hhOzxwYXRoIGZpbGwtcnVsZT0iZXZlbm9kZCIgY2xpcC1ydWxlPSJldmVub2RkIiBkPSJNMjMgMzVDMjYuMzEzNyAzNSAyOSAzNy42ODYzIDI5IDQxQzI5IDQ0LjMxMzcgMjYuMzEzNyA0NyAyMyA0N0MxOS42ODYzIDQ3IDE3IDQ0LjMxMzcgMTcgNDFDMTcgMzcuNjg2MyAxOS42ODYzIDM1IDIzIDM1WiIgc3Ryb2tlPSIjMjA4OEZGIiBzdHJva2Utd2lkdGg9IjIiIHN0cm9rZS1saW5lY2FwPSJyb3VuZCIgc3Ryb2tlLWxpbmVqb2luPSJyb3VuZCIvPiYjeGE7PHBhdGggZmlsbC1ydWxlPSJldmVub2RkIiBjbGlwLXJ1bGU9ImV2ZW5vZGQiIGQ9Ik00MSAzNUM0NC4zMTM3IDM1IDQ3IDM3LjY4NjMgNDcgNDFDNDcgNDQuMzEzNyA0NC4zMTM3IDQ3IDQxIDQ3QzM3LjY4NjMgNDcgMzUgNDQuMzEzNyAzNSA0MUMzNSAzNy42ODYzIDM3LjY4NjMgMzUgNDEgMzVaIiBzdHJva2U9IiM3OUI4RkYiIHN0cm9rZS13aWR0aD0iMiIgc3Ryb2tlLWxpbmVjYXA9InJvdW5kIiBzdHJva2UtbGluZWpvaW49InJvdW5kIi8+JiN4YTs8cGF0aCBkPSJNMjUuMDM2NSAyMy42MDY5TDIxLjk2NzMgMjYuNjcyTDIwLjQ3NjYgMjUuMTg2NiIgc3Ryb2tlPSIjMjA4OEZGIiBzdHJva2Utd2lkdGg9IjIiIHN0cm9rZS1saW5lY2FwPSJyb3VuZCIgc3Ryb2tlLWxpbmVqb2luPSJyb3VuZCIvPiYjeGE7PHBhdGggZmlsbC1ydWxlPSJldmVub2RkIiBjbGlwLXJ1bGU9ImV2ZW5vZGQiIGQ9Ik00MSAxOUM0NC4zMTM3IDE5IDQ3IDIxLjY4NjMgNDcgMjVDNDcgMjguMzEzNyA0NC4zMTM3IDMxIDQxIDMxQzM3LjY4NjMgMzEgMzUgMjguMzEzNyAzNSAyNUMzNSAyMS42ODYzIDM3LjY4NjMgMTkgNDEgMTlaIiBzdHJva2U9IiMyMDg4RkYiIHN0cm9rZS13aWR0aD0iMiIgc3Ryb2tlLWxpbmVjYXA9InJvdW5kIiBzdHJva2UtbGluZWpvaW49InJvdW5kIi8+JiN4YTs8cGF0aCBkPSJNNDMuMDM2NSAyMy42MDY5TDM5Ljk2NzMgMjYuNjcyTDM4LjQ3NjYgMjUuMTg2NiIgc3Ryb2tlPSIjMjA4OEZGIiBzdHJva2Utd2lkdGg9IjIiIHN0cm9rZS1saW5lY2FwPSJyb3VuZCIgc3Ryb2tlLWxpbmVqb2luPSJyb3VuZCIvPiYjeGE7PHBhdGggZD0iTTcgNi44MTIwMUM3IDYuMDI0OTggNy44NjcwOSA1LjU0NjQxIDguNTMzIDUuOTY1OUwxMy42NDYyIDkuMTg2OTJDMTQuMjcxNSA5LjU4MDgyIDE0LjI2ODIgMTAuNDkzNSAxMy42NDAyIDEwLjg4MjlMOC41MjY5NyAxNC4wNTM0QzcuODYwOCAxNC40NjY0IDcgMTMuOTg3MyA3IDEzLjIwMzVWNi44MTIwMVoiIHN0cm9rZT0iIzIwODhGRiIgc3Ryb2tlLXdpZHRoPSIyIiBzdHJva2UtbGluZWNhcD0icm91bmQiIHN0cm9rZS1saW5lam9pbj0icm91bmQiLz4mI3hhOzxwYXRoIGQ9Ik05IDE5VjM0QzkgMzcuODY2IDEyLjE3NzIgNDEgMTYgNDFIMTciIHN0cm9rZT0iIzIwODhGRiIgc3Ryb2tlLXdpZHRoPSIyIiBzdHJva2UtbGluZWNhcD0icm91bmQiIHN0cm9rZS1saW5lam9pbj0icm91bmQiLz4mI3hhOzxwYXRoIGQ9Ik0xNi45NDkgMjZDMTcuNTAxMyAyNiAxNy45NDkgMjUuNTUyMyAxNy45NDkgMjVDMTcuOTQ5IDI0LjQ0NzcgMTcuNTAxMyAyNCAxNi45NDkgMjRWMjZaTTggMTkuMDM1MkM4IDIyLjg4MTcgMTEuMTE4MyAyNiAxNC45NjQ4IDI2VjI0QzEyLjIyMjggMjQgMTAgMjEuNzc3MiAxMCAxOS4wMzUySDhaTTE0Ljk2NDggMjZIMTYuOTQ5VjI0SDE0Ljk2NDhWMjZaIiBmaWxsPSIjMjA4OEZGIi8+JiN4YTs8cGF0aCBkPSJNMjkuMDU0NyAyNUgzNC45OTkzIiBzdHJva2U9IiMyMDg4RkYiIHN0cm9rZS13aWR0aD0iMiIgc3Ryb2tlLWxpbmVjYXA9InJvdW5kIiBzdHJva2UtbGluZWpvaW49InJvdW5kIi8+JiN4YTs8cGF0aCBmaWxsLXJ1bGU9ImV2ZW5vZGQiIGNsaXAtcnVsZT0iZXZlbm9kZCIgZD0iTTIxIDQwQzIxLjU1MTggNDAgMjIgNDAuNDQ4MiAyMiA0MUMyMiA0MS41NTI2IDIxLjU1MTggNDIgMjEgNDJDMjAuNDQ4MiA0MiAyMCA0MS41NTI2IDIwIDQxQzIwIDQwLjQ0ODIgMjAuNDQ4MiA0MCAyMSA0MFoiIGZpbGw9IiM3OUI4RkYiLz4mI3hhOzxwYXRoIGZpbGwtcnVsZT0iZXZlbm9kZCIgY2xpcC1ydWxlPSJldmVub2RkIiBkPSJNMjUgNDBDMjUuNTUxOCA0MCAyNiA0MC40NDgyIDI2IDQxQzI2IDQxLjU1MjYgMjUuNTUxOCA0MiAyNSA0MkMyNC40NDgyIDQyIDI0IDQxLjU1MjYgMjQgNDFDMjQgNDAuNDQ4MiAyNC40NDgyIDQwIDI1IDQwWiIgZmlsbD0iIzc5QjhGRiIvPiYjeGE7PHBhdGggZD0iTTM0LjAwNDggNDEuMDA2OUwzMi45OTIyIDQxLjAzOTkiIHN0cm9rZT0iIzc5QjhGRiIgc3Ryb2tlLXdpZHRoPSIyIiBzdHJva2UtbGluZWNhcD0icm91bmQiLz4mI3hhOzwvc3ZnPg==" parent="84" vertex="1">
                    <mxGeometry x="22.5" width="75" height="75" as="geometry"/>
                </mxCell>
                <mxCell id="58" value="GitHub Actions" style="text;html=1;strokeColor=none;fillColor=none;align=center;verticalAlign=middle;whiteSpace=wrap;rounded=0;fontFamily=Comic Sans MS;fontSize=16;" parent="84" vertex="1">
                    <mxGeometry y="76.5" width="120" height="20" as="geometry"/>
                </mxCell>
                <mxCell id="60" value="" style="endArrow=classic;html=1;fontFamily=Comic Sans MS;fontSize=16;exitX=1;exitY=0.5;exitDx=0;exitDy=0;" parent="96" source="57" target="80" edge="1">
                    <mxGeometry width="50" height="50" relative="1" as="geometry">
                        <mxPoint x="610" y="362" as="sourcePoint"/>
                        <mxPoint x="720" y="362" as="targetPoint"/>
                    </mxGeometry>
                </mxCell>
                <mxCell id="53" value="" style="endArrow=classic;html=1;fontFamily=Comic Sans MS;fontSize=16;" parent="96" source="52" target="57" edge="1">
                    <mxGeometry width="50" height="50" relative="1" as="geometry">
                        <mxPoint x="400" y="362" as="sourcePoint"/>
                        <mxPoint x="510" y="362" as="targetPoint"/>
                    </mxGeometry>
                </mxCell>
                <mxCell id="85" value="devices" style="outlineConnect=0;gradientColor=none;fontColor=#545B64;strokeColor=none;fillColor=#FFFFFF;dashed=0;verticalLabelPosition=bottom;verticalAlign=top;align=center;html=1;fontSize=12;fontStyle=0;aspect=fixed;shape=mxgraph.aws4.illustration_devices;pointerEvents=1" parent="96" vertex="1">
                    <mxGeometry y="90" width="102.74" height="75" as="geometry"/>
                </mxCell>
                <mxCell id="86" value="users" style="outlineConnect=0;gradientColor=none;fontColor=#545B64;strokeColor=none;fillColor=#FFFFFF;dashed=0;verticalLabelPosition=bottom;verticalAlign=top;align=center;html=1;fontSize=12;fontStyle=0;aspect=fixed;shape=mxgraph.aws4.illustration_users;pointerEvents=1" parent="96" vertex="1">
                    <mxGeometry x="20" y="332.5" width="75" height="75" as="geometry"/>
                </mxCell>
                <mxCell id="87" value="Application Load Balancer" style="outlineConnect=0;fontColor=#232F3E;gradientColor=none;strokeColor=#ffffff;fillColor=#232F3E;dashed=0;verticalLabelPosition=middle;verticalAlign=bottom;align=center;html=1;whiteSpace=wrap;fontSize=10;fontStyle=1;spacing=3;shape=mxgraph.aws4.productIcon;prIcon=mxgraph.aws4.application_load_balancer;" parent="96" vertex="1">
                    <mxGeometry x="520" y="137" width="80" height="110" as="geometry"/>
                </mxCell>
                <mxCell id="67" value="" style="endArrow=classic;html=1;fontFamily=Comic Sans MS;fontSize=16;" parent="96" source="87" target="81" edge="1">
                    <mxGeometry width="50" height="50" relative="1" as="geometry">
                        <mxPoint x="605" y="189" as="sourcePoint"/>
                        <mxPoint x="715" y="189" as="targetPoint"/>
                    </mxGeometry>
                </mxCell>
                <mxCell id="88" value="Amazon ElastiCache for Redis" style="outlineConnect=0;fontColor=#232F3E;gradientColor=none;strokeColor=#ffffff;fillColor=#232F3E;dashed=0;verticalLabelPosition=middle;verticalAlign=bottom;align=center;html=1;whiteSpace=wrap;fontSize=10;fontStyle=1;spacing=3;shape=mxgraph.aws4.productIcon;prIcon=mxgraph.aws4.elasticache_for_redis;" parent="96" vertex="1">
                    <mxGeometry x="920" y="215" width="80" height="120" as="geometry"/>
                </mxCell>
                <mxCell id="51" value="" style="endArrow=classic;html=1;fontFamily=Comic Sans MS;fontSize=16;" parent="96" source="81" target="88" edge="1">
                    <mxGeometry width="50" height="50" relative="1" as="geometry">
                        <mxPoint x="810" y="208" as="sourcePoint"/>
                        <mxPoint x="890" y="290" as="targetPoint"/>
                    </mxGeometry>
                </mxCell>
                <mxCell id="89" value="Amazon RDS" style="outlineConnect=0;fontColor=#232F3E;gradientColor=none;strokeColor=#ffffff;fillColor=#232F3E;dashed=0;verticalLabelPosition=middle;verticalAlign=bottom;align=center;html=1;whiteSpace=wrap;fontSize=10;fontStyle=1;spacing=3;shape=mxgraph.aws4.productIcon;prIcon=mxgraph.aws4.rds;" parent="96" vertex="1">
                    <mxGeometry x="920" y="75" width="80" height="100" as="geometry"/>
                </mxCell>
                <mxCell id="50" value="" style="endArrow=classic;html=1;fontFamily=Comic Sans MS;fontSize=16;" parent="96" source="81" target="89" edge="1">
                    <mxGeometry width="50" height="50" relative="1" as="geometry">
                        <mxPoint x="810" y="178" as="sourcePoint"/>
                        <mxPoint x="920" y="138" as="targetPoint"/>
                    </mxGeometry>
                </mxCell>
                <mxCell id="90" value="Amazon Cloudfront" style="outlineConnect=0;fontColor=#232F3E;gradientColor=none;strokeColor=#ffffff;fillColor=#232F3E;dashed=0;verticalLabelPosition=middle;verticalAlign=bottom;align=center;html=1;whiteSpace=wrap;fontSize=10;fontStyle=1;spacing=3;shape=mxgraph.aws4.productIcon;prIcon=mxgraph.aws4.cloudfront;" parent="96" vertex="1">
                    <mxGeometry x="350" y="65" width="80" height="110" as="geometry"/>
                </mxCell>
                <mxCell id="48" value="" style="endArrow=classic;html=1;fontFamily=Comic Sans MS;fontSize=16;" parent="96" source="90" target="87" edge="1">
                    <mxGeometry width="50" height="50" relative="1" as="geometry">
                        <mxPoint x="440" y="116" as="sourcePoint"/>
                        <mxPoint x="520" y="173" as="targetPoint"/>
                    </mxGeometry>
                </mxCell>
                <mxCell id="92" value="Amazon S3" style="outlineConnect=0;fontColor=#232F3E;gradientColor=none;strokeColor=#ffffff;fillColor=#232F3E;dashed=0;verticalLabelPosition=middle;verticalAlign=bottom;align=center;html=1;whiteSpace=wrap;fontSize=10;fontStyle=1;spacing=3;shape=mxgraph.aws4.productIcon;prIcon=mxgraph.aws4.s3;" parent="96" vertex="1">
                    <mxGeometry x="520" width="80" height="100" as="geometry"/>
                </mxCell>
                <mxCell id="93" value="Amazon S3" style="outlineConnect=0;fontColor=#232F3E;gradientColor=none;strokeColor=#ffffff;fillColor=#232F3E;dashed=0;verticalLabelPosition=middle;verticalAlign=bottom;align=center;html=1;whiteSpace=wrap;fontSize=10;fontStyle=1;spacing=3;shape=mxgraph.aws4.productIcon;prIcon=mxgraph.aws4.s3;" parent="96" vertex="1">
                    <mxGeometry x="725" y="464" width="80" height="100" as="geometry"/>
                </mxCell>
                <mxCell id="45" value="" style="endArrow=classic;html=1;fontFamily=Comic Sans MS;fontSize=16;" parent="96" source="90" target="92" edge="1">
                    <mxGeometry width="50" height="50" relative="1" as="geometry">
                        <mxPoint x="440" y="13" as="sourcePoint"/>
                        <mxPoint x="520" y="-47" as="targetPoint"/>
                    </mxGeometry>
                </mxCell>
                <mxCell id="94" value="" style="endArrow=classic;html=1;fontFamily=Comic Sans MS;fontSize=16;" parent="96" source="86" target="52" edge="1">
                    <mxGeometry width="50" height="50" relative="1" as="geometry">
                        <mxPoint x="155" y="371" as="sourcePoint"/>
                        <mxPoint x="290" y="371" as="targetPoint"/>
                    </mxGeometry>
                </mxCell>
                <mxCell id="95" value="push" style="text;html=1;strokeColor=none;fillColor=none;align=center;verticalAlign=middle;whiteSpace=wrap;rounded=0;fontFamily=Comic Sans MS;fontSize=16;" parent="96" vertex="1">
                    <mxGeometry x="120" y="371" width="120" height="20" as="geometry"/>
                </mxCell>
            </root>
        </mxGraphModel>
    </diagram>
</mxfile>